<svg width="422" height="238" viewBox="0 0 422 238" fill="none" xmlns="http://www.w3.org/2000/svg">
<path d="M90.855 3C84.7799 3 79.855 7.92486 79.855 14V116.08C79.855 122.155 84.7799 127.08 90.855 127.08H121.554C124.315 127.08 126.554 129.319 126.554 132.08V158C126.554 164.075 131.478 169 137.554 169H139.8C145.875 169 150.8 164.075 150.8 158V14C150.8 7.92487 145.875 3 139.8 3H137.554C131.478 3 126.554 7.92485 126.554 14V92.6286C126.554 95.39 124.315 97.6286 121.554 97.6286H109.101C106.34 97.6286 104.101 95.39 104.101 92.6286V14C104.101 7.92487 99.1766 3 93.1014 3H90.855Z" fill="#FFCC70" stroke="#000072" stroke-width="6" stroke-linejoin="round"/>
<path d="M179.8 3C173.725 3 168.8 7.92487 168.8 14V158C168.8 164.075 173.725 169 179.8 169H242.2C248.275 169 253.2 164.075 253.2 158V14C253.2 7.92487 248.275 3 242.2 3H179.8ZM226.695 131.486C226.695 134.247 224.457 136.486 221.695 136.486H200.305C197.543 136.486 195.305 134.247 195.305 131.486V40.5143C195.305 37.7529 197.543 35.5143 200.305 35.5143H221.695C224.457 35.5143 226.695 37.7529 226.695 40.5143V131.486Z" fill="#FFCC70" stroke="#000072" stroke-width="6" stroke-linejoin="round"/>
<path d="M282.2 3C276.125 3 271.2 7.92486 271.2 14V116.08C271.2 122.155 276.125 127.08 282.2 127.08H312.898C315.66 127.08 317.898 129.319 317.898 132.08V158C317.898 164.075 322.823 169 328.898 169H331.145C337.22 169 342.145 164.075 342.145 158V14C342.145 7.92487 337.22 3 331.145 3H328.898C322.823 3 317.898 7.92485 317.898 14V92.6286C317.898 95.39 315.66 97.6286 312.898 97.6286H300.446C297.685 97.6286 295.446 95.39 295.446 92.6286V14C295.446 7.92487 290.522 3 284.446 3H282.2Z" fill="#FFCC70" stroke="#000072" stroke-width="6" stroke-linejoin="round"/>
<g clip-path="url(#clip0_2124_15115)">
<g opacity="0.2">
<path d="M210.938 231.804C277.455 231.804 331.377 224.594 331.377 215.7C331.377 206.806 277.455 199.596 210.938 199.596C144.422 199.596 90.5 206.806 90.5 215.7C90.5 224.594 144.422 231.804 210.938 231.804Z" fill="#000072"/>
</g>
<path d="M177.349 215.23H132.649C105.929 215.23 105.929 191.46 132.649 191.46H160.906" fill="#60547B"/>
<g opacity="0.3">
<path d="M177.351 215.229H132.651C119.997 215.229 113.337 209.899 112.668 204.285C115.985 206.828 121.258 208.569 128.496 208.569H172.742L177.351 215.229Z" fill="#000072"/>
</g>
<g opacity="0.55">
<path d="M177.349 215.229H177.009L162.419 194.131H134.16C118.705 194.131 112.189 202.086 114.611 208.792C109.054 201.752 115.068 191.46 132.649 191.46H160.905L177.349 215.229Z" fill="white"/>
</g>
<path d="M306.754 218.353C306.146 218.372 305.523 218.379 304.887 218.379H210.294C209.463 218.353 208.662 218.304 207.894 218.243C180.182 215.996 192.145 192.019 242.202 193.745L196.531 162.682C199.431 159.696 202.523 156.903 205.787 154.32C217.036 145.431 229.514 139.76 241.715 137.309C257.052 134.223 271.943 136.221 283.382 143.301C296.72 151.541 305.363 166.687 304.551 188.714C306.475 188.966 308.38 189.349 310.252 189.859C311.701 190.254 313.125 190.735 314.517 191.299C332.807 198.747 335.505 217.578 306.754 218.353Z" fill="white"/>
<path d="M304.888 218.579H210.294C209.53 218.555 208.741 218.51 207.876 218.442C198.498 217.682 192.842 214.277 193.115 209.556C193.355 205.456 198.109 201.225 205.841 198.237C212.207 195.779 223.539 192.982 241.517 193.523L196.219 162.714L196.385 162.543C199.293 159.552 202.393 156.753 205.665 154.165C216.562 145.557 229.015 139.661 241.679 137.117C257.294 133.974 272.143 136.111 283.49 143.133C297.914 152.047 305.465 168.168 304.761 188.544C306.632 188.797 308.485 189.173 310.307 189.669C311.764 190.066 313.195 190.549 314.595 191.116C323.835 194.876 329.508 201.797 328.392 207.941C327.227 214.346 319.344 218.214 306.762 218.553C306.189 218.57 305.577 218.579 304.888 218.579ZM237.076 193.859C221.71 193.859 211.778 196.376 205.985 198.614C198.404 201.543 193.745 205.643 193.514 209.582C193.256 214.062 198.771 217.306 207.908 218.047C208.766 218.114 209.549 218.159 210.3 218.182H304.888C305.572 218.182 306.181 218.173 306.748 218.156C319.123 217.823 326.868 214.076 327.995 207.873C329.077 201.916 323.504 195.179 314.441 191.49C313.057 190.929 311.641 190.451 310.201 190.058C308.337 189.551 306.441 189.17 304.526 188.919L304.346 188.895L304.353 188.713C305.102 168.403 297.617 152.338 283.278 143.477C272.017 136.508 257.271 134.389 241.758 137.512C229.156 140.044 216.761 145.912 205.918 154.483C202.723 157.011 199.692 159.74 196.845 162.654L242.891 193.973L242.2 193.949C240.426 193.886 238.718 193.855 237.076 193.856V193.859Z" fill="#000072"/>
<path d="M177.348 216.53H132.649C117.987 216.53 111.309 209.695 111.309 203.345C111.309 196.995 117.987 190.16 132.649 190.16H160.905C161.25 190.16 161.581 190.297 161.825 190.541C162.068 190.785 162.205 191.115 162.205 191.46C162.205 191.805 162.068 192.136 161.825 192.379C161.581 192.623 161.25 192.76 160.905 192.76H132.649C120.345 192.76 113.909 198.085 113.909 203.345C113.909 208.605 120.345 213.931 132.649 213.931H177.348C177.521 213.926 177.694 213.957 177.855 214.02C178.017 214.083 178.164 214.178 178.288 214.3C178.412 214.421 178.511 214.565 178.578 214.725C178.645 214.885 178.68 215.057 178.68 215.23C178.68 215.404 178.645 215.575 178.578 215.735C178.511 215.895 178.412 216.04 178.288 216.161C178.164 216.282 178.017 216.377 177.855 216.44C177.694 216.504 177.521 216.534 177.348 216.53Z" fill="#000072"/>
<path d="M262.075 188.309C260.292 195.162 255.779 206.019 248.875 212.324L230.899 203.345C230.899 203.345 213.223 194.065 213.726 190.119C214.16 186.708 208.23 161.905 205.789 154.323C207.822 152.717 209.891 151.217 211.995 149.824C221.538 143.493 231.719 139.322 241.718 137.313C241.819 137.293 243.002 137.517 244.781 138.185C252.492 141.086 271.429 152.351 262.075 188.309Z" fill="#60547B"/>
<g opacity="0.55">
<path d="M302.286 168.629C293.597 144.452 268.775 134.96 242.66 140.218C230.459 142.669 217.982 148.339 206.732 157.228C203.963 159.415 201.319 161.756 198.812 164.239L196.527 162.682C199.429 159.696 202.522 156.903 205.787 154.32C217.037 145.431 229.515 139.76 241.716 137.31C268.854 131.854 294.595 142.31 302.286 168.629Z" fill="white"/>
</g>
<g opacity="0.3">
<path d="M235.203 146.529C251.413 153.894 259.102 168.411 259.387 189.142C259.44 192.976 255.967 195.904 252.192 195.238C245.978 194.141 236.694 192.972 228.862 193.917C215.739 195.498 235.203 146.529 235.203 146.529Z" fill="#000072"/>
</g>
<path d="M300.976 164.741L296.217 157.397L290.887 149.177C296.087 145.804 300.772 145.959 303.828 147.935C308.822 151.157 309.472 159.237 300.976 164.741Z" fill="#60547B"/>
<g opacity="0.55">
<path d="M304.228 150.335C305.767 151.322 306.918 152.81 307.488 154.547C307.433 151.812 306.071 149.383 303.828 147.935C300.772 145.959 296.088 145.804 290.887 149.177L292.115 151.072C296.982 148.231 301.336 148.464 304.228 150.335Z" fill="white"/>
</g>
<path d="M304.555 190.018H304.506C304.335 190.012 304.168 189.972 304.012 189.901C303.857 189.829 303.717 189.728 303.601 189.603C303.485 189.478 303.395 189.331 303.335 189.171C303.276 189.011 303.248 188.841 303.255 188.671C303.895 171.279 298.553 157.255 287.801 148.111C276.471 138.478 259.767 135.006 241.974 138.586C229.542 141.085 217.307 146.88 206.596 155.343C203.375 157.891 200.324 160.645 197.462 163.589C197.22 163.829 196.894 163.965 196.553 163.966C196.212 163.968 195.884 163.836 195.64 163.598C195.396 163.361 195.254 163.037 195.246 162.696C195.239 162.356 195.365 162.026 195.598 161.777C198.539 158.752 201.673 155.921 204.982 153.303C216.013 144.583 228.627 138.617 241.462 136.039C260.04 132.301 277.542 135.979 289.485 146.131C300.866 155.807 306.525 170.55 305.853 188.766C305.84 189.102 305.698 189.42 305.456 189.653C305.214 189.887 304.891 190.017 304.555 190.018Z" fill="#000072"/>
<path d="M198.289 118.092C213.871 87.4209 254.706 113.401 232.899 142.718L198.289 118.092Z" fill="#60547B"/>
<g opacity="0.3">
<path d="M222.621 135.407L232.899 142.72C240.954 131.894 240.463 121.52 235.859 114.289C236.309 122.553 232.099 131.239 222.621 135.407Z" fill="#000072"/>
</g>
<g opacity="0.55">
<path d="M198.285 118.091L200.154 119.42C211.16 100.38 232.658 106.083 238.583 120.722C234.467 103.493 209.656 95.7124 198.285 118.091Z" fill="white"/>
</g>
<path d="M152.571 128.865C126.571 112.771 97.8626 149.425 132.777 168.093L152.571 128.865Z" fill="#60547B"/>
<g opacity="0.55">
<path d="M118.158 153.664C114.579 137.439 133.219 121.863 151.459 131.068L152.57 128.864C132.384 116.368 110.565 135.668 118.158 153.664Z" fill="white"/>
</g>
<path d="M135.435 189.591C144.928 219.265 171.824 223.219 200.504 214.043C229.185 204.867 248.79 186.037 239.296 156.363C229.803 126.688 198.857 110.072 170.176 119.243C141.496 128.414 125.94 159.92 135.435 189.591Z" fill="white"/>
<path d="M175.194 218.601C169.95 218.601 165.093 217.929 160.714 216.577C148.302 212.743 139.732 203.685 135.242 189.652C130.635 175.252 131.722 159.976 138.309 146.644C144.895 133.311 156.19 123.511 170.114 119.056C198.854 109.861 229.974 126.571 239.485 156.302C243.974 170.334 242.254 182.685 234.373 193.012C227.498 202.018 215.806 209.357 200.563 214.233C191.485 217.139 182.921 218.601 175.194 218.601ZM135.627 189.53C140.074 203.431 148.555 212.402 160.834 216.195C171.582 219.515 185.278 218.705 200.444 213.853C215.61 209.001 227.233 201.71 234.058 192.769C241.855 182.553 243.554 170.324 239.107 156.424C229.662 126.904 198.768 110.31 170.238 119.438C156.419 123.859 145.209 133.584 138.671 146.82C132.134 160.057 131.051 175.228 135.627 189.53Z" fill="#000072"/>
<g opacity="0.3">
<path d="M144.211 205.749C157.017 220.376 178.221 221.171 200.507 214.041C229.186 204.866 248.792 186.037 239.299 156.361C234.339 140.862 223.529 128.928 210.249 122.361C217.018 128.802 222.343 137.042 225.417 146.652C234.912 176.332 215.306 195.157 186.627 204.332C171.153 209.289 156.196 210.417 144.211 205.749Z" fill="#000072"/>
</g>
<path d="M175.191 219.699C169.836 219.699 164.871 219.011 160.391 217.627C147.62 213.68 138.802 204.382 134.197 189.987C129.502 175.312 130.613 159.747 137.325 146.156C144.045 132.551 155.57 122.556 169.78 118.009C199.098 108.63 230.838 125.657 240.535 155.967C245.14 170.362 243.361 183.05 235.249 193.679C228.237 202.865 216.36 210.335 200.9 215.279C191.712 218.22 183.036 219.699 175.191 219.699ZM136.673 189.195C141.004 202.732 149.242 211.463 161.158 215.143C171.69 218.397 185.158 217.587 200.108 212.805C215.057 208.023 226.495 200.863 233.182 192.101C240.749 182.187 242.39 170.297 238.062 156.759C228.802 127.815 198.526 111.543 170.576 120.485C157.043 124.815 146.064 134.34 139.659 147.307C133.244 160.29 132.185 175.166 136.673 189.195Z" fill="#000072"/>
<path d="M232.899 144.018C232.658 144.018 232.422 143.951 232.217 143.824C232.013 143.697 231.847 143.516 231.739 143.301C231.631 143.086 231.585 142.845 231.606 142.605C231.628 142.365 231.715 142.136 231.859 141.943C240.448 130.394 237.999 121.217 235.779 116.774C232.392 110.01 225.443 105.625 218.076 105.603H218.019C210.33 105.603 203.739 110.243 199.453 118.681C199.376 118.833 199.269 118.969 199.139 119.08C199.01 119.191 198.859 119.275 198.697 119.328C198.535 119.382 198.363 119.402 198.193 119.389C198.023 119.376 197.857 119.329 197.704 119.252C197.552 119.175 197.416 119.068 197.305 118.938C197.194 118.809 197.11 118.658 197.056 118.496C197.003 118.333 196.983 118.162 196.996 117.992C197.009 117.822 197.056 117.655 197.133 117.503C201.816 108.286 209.427 103.004 218.019 103.004H218.082C226.421 103.029 234.279 107.977 238.101 115.61C242.339 124.08 240.819 134.24 233.939 143.494C233.818 143.657 233.661 143.789 233.481 143.88C233.3 143.971 233.101 144.018 232.899 144.018Z" fill="#000072"/>
<path d="M132.779 169.393C132.565 169.393 132.355 169.34 132.167 169.239C121.404 163.483 115.421 155.367 115.318 146.386C115.227 138.471 119.798 130.946 127.238 126.739C135.338 122.167 144.821 122.539 153.255 127.76C153.403 127.848 153.533 127.965 153.636 128.104C153.739 128.243 153.814 128.401 153.855 128.569C153.896 128.736 153.904 128.911 153.877 129.082C153.85 129.252 153.789 129.416 153.698 129.563C153.607 129.71 153.488 129.838 153.347 129.938C153.206 130.038 153.047 130.109 152.878 130.147C152.709 130.185 152.535 130.189 152.364 130.159C152.194 130.129 152.032 130.064 151.887 129.971C144.287 125.263 135.765 124.911 128.516 129.003C121.897 132.74 117.835 139.389 117.914 146.356C118.006 154.347 123.501 161.659 133.389 166.947C133.645 167.083 133.847 167.301 133.965 167.566C134.082 167.831 134.107 168.128 134.037 168.409C133.966 168.69 133.804 168.94 133.575 169.118C133.347 169.296 133.065 169.393 132.775 169.393H132.779Z" fill="#000072"/>
<path d="M177.349 121.415C169.829 106.271 156.17 116.7 166.235 124.177L177.349 121.415Z" fill="white"/>
<path d="M166.115 124.336C163.227 122.192 161.961 119.565 162.641 117.131C163.201 115.131 165.023 113.704 167.29 113.489C171.084 113.132 174.912 116.06 177.53 121.324L177.171 121.503C174.633 116.392 170.955 113.544 167.331 113.888C165.231 114.087 163.543 115.401 163.03 117.238C162.398 119.504 163.61 121.975 166.358 124.016L166.115 124.336Z" fill="#000072"/>
<path d="M164.123 122.168C154.523 117.636 151.411 129.813 162.985 128.587L164.123 122.168Z" fill="white"/>
<path d="M161.453 128.872C158.581 128.872 156.465 127.933 155.657 126.247C155.036 124.951 155.331 123.414 156.409 122.327C158.113 120.611 161.029 120.487 164.207 121.984L164.037 122.346C161.018 120.921 158.277 121.02 156.693 122.608C155.733 123.568 155.471 124.928 156.017 126.071C156.889 127.888 159.486 128.753 162.963 128.386L163.005 128.786C162.49 128.842 161.971 128.87 161.453 128.872Z" fill="#000072"/>
<path d="M159.665 128.542C152.199 133.923 160.287 140.16 163.654 132.542L159.665 128.542Z" fill="white"/>
<path d="M159.459 136.285C159.379 136.285 159.306 136.285 159.228 136.277C158.606 136.24 158.01 136.009 157.525 135.618C157.04 135.226 156.688 134.693 156.52 134.093C155.997 132.257 157.128 130.121 159.546 128.379L159.78 128.699C157.505 130.339 156.43 132.313 156.905 133.979C157.051 134.5 157.356 134.963 157.778 135.302C158.199 135.642 158.716 135.842 159.256 135.874C160.897 135.984 162.474 134.709 163.471 132.453L163.836 132.613C162.815 134.933 161.191 136.285 159.459 136.285Z" fill="#000072"/>
<path d="M166.234 125.477C165.955 125.477 165.683 125.387 165.459 125.22C162.235 122.82 160.785 119.689 161.582 116.835C162.263 114.396 164.462 112.653 167.182 112.395C171.444 111.99 175.683 115.146 178.508 120.836C178.654 121.144 178.674 121.497 178.562 121.818C178.451 122.14 178.217 122.406 177.912 122.557C177.607 122.709 177.255 122.735 176.931 122.629C176.607 122.523 176.337 122.295 176.18 121.993C173.852 117.305 170.58 114.689 167.427 114.983C165.784 115.138 164.467 116.14 164.082 117.534C163.578 119.337 164.642 121.374 167.006 123.134C167.226 123.297 167.388 123.525 167.471 123.786C167.553 124.047 167.551 124.327 167.465 124.587C167.379 124.847 167.214 125.072 166.992 125.232C166.77 125.393 166.503 125.479 166.23 125.478L166.234 125.477Z" fill="#000072"/>
<path d="M161.38 129.977C156.771 129.977 155.167 127.76 154.67 126.722C153.845 125.001 154.223 122.973 155.63 121.554C157.678 119.494 161.06 119.284 164.678 120.994C164.986 121.144 165.223 121.409 165.337 121.732C165.451 122.055 165.433 122.41 165.287 122.719C165.141 123.029 164.878 123.269 164.556 123.386C164.234 123.503 163.879 123.489 163.568 123.346C160.528 121.912 158.429 122.429 157.474 123.39C156.84 124.03 156.662 124.874 157.01 125.601C157.521 126.666 159.321 127.67 162.85 127.297C163.193 127.26 163.537 127.362 163.805 127.579C164.073 127.795 164.244 128.11 164.28 128.453C164.316 128.796 164.215 129.139 163.998 129.407C163.781 129.675 163.467 129.846 163.124 129.882C162.545 129.945 161.963 129.976 161.38 129.977Z" fill="#000072"/>
<path d="M159.467 137.386C159.363 137.386 159.26 137.386 159.155 137.374C158.306 137.323 157.495 137.009 156.833 136.475C156.172 135.94 155.694 135.213 155.465 134.394C154.809 132.094 156.096 129.514 158.905 127.486C159.044 127.387 159.2 127.315 159.367 127.276C159.533 127.237 159.705 127.231 159.874 127.258C160.042 127.285 160.204 127.346 160.349 127.435C160.494 127.525 160.62 127.643 160.72 127.781C160.82 127.92 160.891 128.077 160.93 128.243C160.97 128.409 160.976 128.581 160.948 128.75C160.921 128.918 160.861 129.08 160.771 129.225C160.681 129.37 160.564 129.496 160.425 129.596C158.208 131.196 157.7 132.754 157.964 133.682C158.05 133.985 158.228 134.253 158.473 134.45C158.719 134.647 159.02 134.763 159.334 134.781C160.492 134.861 161.664 133.826 162.466 132.013C162.535 131.857 162.634 131.716 162.757 131.598C162.881 131.48 163.026 131.387 163.186 131.326C163.345 131.264 163.515 131.234 163.685 131.238C163.856 131.242 164.024 131.28 164.18 131.349C164.336 131.418 164.478 131.517 164.595 131.64C164.713 131.764 164.806 131.909 164.867 132.069C164.929 132.228 164.959 132.398 164.955 132.568C164.951 132.739 164.913 132.907 164.844 133.063C163.639 135.793 161.645 137.385 159.467 137.386Z" fill="#000072"/>
<path d="M175.555 177.04C176.404 179.696 180.195 182.451 183.447 181.41C186.7 180.369 188.187 175.926 187.338 173.27C186.488 170.614 183.623 170.748 180.37 171.789C177.116 172.83 174.705 174.382 175.555 177.04Z" fill="#000072"/>
<path d="M196.53 194.565C195.97 196.813 193.591 198.762 190.425 199.963C187.807 200.957 185.25 201.202 183.365 200.515C182.134 200.065 181.189 199.219 180.698 197.924C179.455 194.644 181.952 190.652 186.278 189.012C190.603 187.372 195.117 188.706 196.358 191.993C196.68 192.812 196.74 193.711 196.53 194.565Z" fill="#000072"/>
<path d="M196.528 194.565C195.968 196.813 193.589 198.762 190.423 199.963C187.806 200.957 185.248 201.202 183.363 200.515C183.866 198.035 186.034 195.635 189.146 194.46C191.802 193.451 194.53 193.568 196.528 194.565Z" fill="#FF2C4B"/>
<path d="M184.134 179.205L184.947 184.824C184.96 184.915 184.941 185.008 184.892 185.086C184.843 185.164 184.768 185.223 184.68 185.251C184.592 185.279 184.497 185.275 184.412 185.24C184.327 185.204 184.257 185.14 184.215 185.058L181.616 180.011C181.53 179.854 181.477 179.682 181.46 179.504C181.442 179.326 181.46 179.147 181.513 178.976C181.565 178.806 181.651 178.647 181.766 178.51C181.88 178.374 182.021 178.261 182.18 178.179C182.338 178.097 182.512 178.048 182.69 178.034C182.868 178.02 183.047 178.042 183.216 178.099C183.386 178.155 183.542 178.244 183.677 178.362C183.811 178.479 183.92 178.622 183.999 178.783C184.067 178.915 184.112 179.058 184.134 179.205Z" fill="#000072"/>
<path d="M185.034 162.264C191.637 164.881 196.724 170.402 200.669 178.114C201.774 180.274 204.118 181.499 206.53 181.234C218.67 179.89 223.525 164.741 213.509 152.724C200.422 137.21 182.224 145.212 181.42 156.492C181.335 157.713 181.638 158.929 182.288 159.966C182.937 161.003 183.899 161.808 185.034 162.264Z" fill="#60547B"/>
<path d="M172.322 166.97C168.465 172.934 167.528 180.384 168.791 188.952C169.145 191.352 167.947 193.711 165.831 194.893C155.166 200.846 142.419 191.328 143.6 175.729C145.253 155.5 164.72 151.452 171.92 160.172C172.698 161.116 173.155 162.284 173.228 163.505C173.3 164.727 172.983 165.94 172.322 166.97Z" fill="#60547B"/>
<path d="M199.539 168.514C197.98 168.514 196.332 167.948 194.868 166.552C194.754 166.444 194.663 166.314 194.599 166.17C194.535 166.025 194.5 165.87 194.496 165.713C194.493 165.555 194.52 165.398 194.577 165.251C194.634 165.104 194.719 164.97 194.827 164.856C194.936 164.742 195.066 164.65 195.21 164.586C195.355 164.522 195.51 164.488 195.667 164.484C195.825 164.48 195.982 164.507 196.129 164.564C196.276 164.621 196.41 164.706 196.524 164.815C198.487 166.686 200.726 166.245 202.044 165.295C203.264 164.421 204.338 162.642 203.348 160.506C203.218 160.218 203.206 159.889 203.316 159.593C203.426 159.296 203.65 159.055 203.937 158.922C204.224 158.789 204.552 158.774 204.85 158.882C205.147 158.99 205.39 159.211 205.526 159.497C207.029 162.741 205.563 165.727 203.442 167.246C202.303 168.063 200.94 168.506 199.539 168.514Z" fill="#000072"/>
<path d="M159.148 182.134C156.961 182.134 154.913 181.152 153.615 179.36C153.522 179.232 153.456 179.087 153.419 178.934C153.383 178.781 153.377 178.622 153.402 178.466C153.427 178.31 153.482 178.161 153.565 178.027C153.647 177.893 153.755 177.776 153.883 177.684C154.011 177.591 154.155 177.525 154.308 177.488C154.462 177.452 154.621 177.446 154.776 177.47C154.932 177.495 155.081 177.551 155.215 177.633C155.35 177.716 155.466 177.824 155.559 177.952C156.919 179.837 159.268 180.032 160.987 179.392C162.559 178.806 164.165 177.331 163.959 174.948C163.941 174.789 163.956 174.629 164.001 174.475C164.047 174.322 164.123 174.179 164.224 174.056C164.326 173.932 164.451 173.83 164.592 173.756C164.734 173.681 164.889 173.635 165.048 173.622C165.207 173.608 165.368 173.626 165.52 173.675C165.672 173.724 165.813 173.803 165.934 173.908C166.056 174.012 166.155 174.139 166.226 174.282C166.297 174.426 166.339 174.582 166.349 174.741C166.616 177.809 164.84 180.517 161.825 181.64C160.97 181.963 160.063 182.13 159.148 182.134Z" fill="#000072"/>
<path d="M185.797 202.205C185.255 202.207 184.715 202.162 184.181 202.07C181.9 201.67 180.231 200.362 179.482 198.385C178.733 196.409 179.021 194.198 180.296 192.162C181.496 190.242 183.459 188.689 185.816 187.797C188.173 186.905 190.666 186.767 192.842 187.409C195.145 188.09 196.826 189.554 197.576 191.531C198.325 193.508 197.942 195.594 196.497 197.405C195.266 198.949 193.325 200.254 190.887 201.178C189.089 201.858 187.361 202.205 185.797 202.205ZM190 189.609C188.883 189.616 187.777 189.826 186.735 190.228C184.908 190.92 183.403 192.097 182.5 193.541C181.667 194.872 181.46 196.265 181.913 197.461C182.335 198.576 183.249 199.264 184.633 199.505C186.098 199.762 187.993 199.492 189.966 198.744C191.94 197.996 193.538 196.943 194.466 195.784C195.34 194.689 195.569 193.568 195.146 192.453C194.692 191.253 193.613 190.348 192.106 189.902C191.422 189.704 190.712 189.605 190 189.609Z" fill="#000072"/>
<path d="M249.926 198.065C255.193 209.839 248.978 216.61 231.28 218.379H210.296C179.474 217.344 190.807 191.853 242.56 193.757C244.084 193.612 245.616 193.95 246.937 194.723C248.259 195.496 249.304 196.665 249.926 198.065Z" fill="#60547B"/>
<g opacity="0.55">
<path d="M243.142 193.987C243.142 194.333 243.072 194.674 242.938 194.993C242.804 195.311 242.608 195.599 242.361 195.841C242.115 196.082 241.822 196.272 241.502 196.4C241.181 196.527 240.838 196.589 240.493 196.583C209.693 196.063 194.142 205.487 194.253 212.853C189.233 205.438 204.26 193.27 238.757 193.667L243.142 193.987Z" fill="white"/>
</g>
<path d="M304.886 218.379H299.186C299.186 218.379 281.145 203.847 299.186 188.718C299.342 188.59 299.492 188.461 299.636 188.333C330.43 189.152 342.522 218.379 304.886 218.379Z" fill="#60547B"/>
<g opacity="0.55">
<path d="M299.239 188.732C299.095 188.86 298.943 188.989 298.789 189.117C298.295 189.532 297.829 189.946 297.391 190.359C319.363 191.012 331.746 206.134 323.208 214.668C335.391 206.588 322.781 189.36 299.239 188.732Z" fill="white"/>
</g>
<path d="M304.889 219.68H210.249C201.137 219.374 194.932 216.976 192.778 212.926C191.593 210.699 191.787 208.12 193.326 205.662C195.782 201.742 201.449 198.272 209.283 195.902C218.268 193.182 229.792 191.994 242.607 192.462C242.78 192.465 242.951 192.502 243.109 192.572C243.268 192.641 243.411 192.742 243.53 192.867C243.649 192.993 243.742 193.141 243.803 193.303C243.864 193.465 243.893 193.637 243.886 193.81C243.88 193.983 243.839 194.153 243.766 194.31C243.693 194.467 243.589 194.608 243.461 194.724C243.333 194.841 243.183 194.931 243.02 194.988C242.857 195.046 242.684 195.07 242.511 195.06C229.979 194.599 218.751 195.75 210.037 198.388C202.908 200.548 197.621 203.701 195.529 207.042C194.475 208.722 194.322 210.294 195.072 211.705C196.721 214.804 202.419 216.814 210.315 217.082H304.889C315.736 217.082 323.456 214.486 326.07 209.962C327.481 207.516 327.316 204.537 325.605 201.574C322.165 195.622 312.394 189.617 298.302 189.618C297.957 189.618 297.626 189.481 297.383 189.237C297.139 188.993 297.002 188.662 297.002 188.318C297.002 187.973 297.139 187.642 297.383 187.398C297.626 187.155 297.957 187.018 298.302 187.018C313.431 187.018 324.047 193.675 327.857 200.274C330.051 204.075 330.216 207.978 328.321 211.262C325.185 216.687 316.863 219.68 304.889 219.68Z" fill="#000072"/>
<path d="M300.976 166.041C300.696 166.041 300.423 165.951 300.198 165.783C299.973 165.616 299.809 165.38 299.729 165.111C299.649 164.842 299.659 164.554 299.756 164.291C299.853 164.028 300.032 163.804 300.268 163.651C306.576 159.562 307.201 154.231 305.112 151.011C304.001 149.296 302.185 148.194 299.997 147.906C297.411 147.564 294.504 148.386 291.597 150.27C291.454 150.364 291.294 150.428 291.125 150.46C290.957 150.491 290.784 150.489 290.617 150.454C290.45 150.418 290.291 150.35 290.15 150.253C290.009 150.156 289.888 150.033 289.795 149.889C289.702 149.746 289.638 149.585 289.607 149.417C289.576 149.248 289.579 149.076 289.615 148.908C289.651 148.741 289.72 148.582 289.817 148.442C289.915 148.301 290.039 148.181 290.183 148.088C297.643 143.253 304.44 145.187 307.298 149.596C308.83 151.96 309.204 154.835 308.352 157.69C307.428 160.792 305.122 163.61 301.686 165.836C301.474 165.971 301.228 166.043 300.976 166.041Z" fill="#000072"/>
<g opacity="0.3">
<path d="M291.86 187.458C289.888 187.315 288.643 185.249 289.469 183.453C299.682 161.225 282.727 143.368 282.727 143.368L283.383 143.304C296.722 151.544 305.365 166.69 304.553 188.717C306.477 188.97 308.382 189.352 310.254 189.862C304.802 188.555 296.775 187.815 291.86 187.458Z" fill="#000072"/>
</g>
<g opacity="0.3">
<path d="M304.888 218.379H302.648C320.588 216.366 320.429 194.452 314.563 191.324C314.548 191.317 314.536 191.309 314.521 191.302C333.194 198.906 335.612 218.379 304.888 218.379Z" fill="#000072"/>
</g>
<g opacity="0.3">
<path d="M302.546 218.379H210.294C209.463 218.353 208.662 218.304 207.894 218.243L207.887 218.239C207.887 218.239 217.754 203.053 255.529 211.111C255.529 211.111 274.169 213.438 280.969 209.755C287.39 206.28 289.766 217.718 302.546 218.379Z" fill="#000072"/>
</g>
<path d="M306.753 218.353C306.145 218.372 305.522 218.379 304.887 218.379C305.601 218.346 306.22 218.338 306.753 218.353Z" fill="#7A2938"/>
<path d="M304.889 218.579L304.879 218.179C305.576 218.146 306.209 218.138 306.761 218.153V218.553C306.189 218.57 305.577 218.579 304.889 218.579Z" fill="#000072"/>
<g opacity="0.3">
<path d="M300.974 164.742L296.215 157.398L295.641 154.75C299.705 157.753 304.994 152.019 303.826 147.936C308.82 151.158 309.47 159.238 300.974 164.742Z" fill="#000072"/>
</g>
</g>
<defs>
<clipPath id="clip0_2124_15115">
<rect width="241" height="182" fill="white" transform="translate(90.5 56)"/>
</clipPath>
</defs>
</svg>
